<?xml version="1.0" encoding="UTF-8" standalone="no"?><!DOCTYPE svg PUBLIC "-//W3C//DTD SVG 1.1//EN" "http://www.w3.org/Graphics/SVG/1.1/DTD/svg11.dtd"><svg width="100%" height="100%" viewBox="0 0 160 50" version="1.1" xmlns="http://www.w3.org/2000/svg" xmlns:xlink="http://www.w3.org/1999/xlink" xml:space="preserve" xmlns:serif="http://www.serif.com/" style="fill-rule:evenodd;clip-rule:evenodd;stroke-linejoin:round;stroke-miterlimit:2;"><g><path d="M40,30c-1.292,9.916 -9.832,17.416 -19.832,17.416c-10.972,0 -20,-9.028 -20,-20c-0,-10.971 9.028,-20 20,-20c3.445,0 6.832,0.89 9.832,2.584l0,8c-6.208,0.517 -11.042,5.771 -11.042,12c0,6.606 5.436,12.042 12.042,12.042c0.334,-0 0.667,-0.014 1,-0.042l-2,-4" style="fill:#036966;fill-rule:nonzero;"/><g><path d="M26,24l8,-4l4,4l-8,4l-4,-4Z" style="fill:#036966;fill-opacity:0.8;fill-rule:nonzero;"/><path d="M28,32l8,-4l4,4l-8,4l-4,-4Z" style="fill:#036966;fill-opacity:0.8;fill-rule:nonzero;"/><path d="M27,40l8,-4l4,4l-8,4l-4,-4Z" style="fill:#036966;fill-opacity:0.8;fill-rule:nonzero;"/></g></g><g><text x="45px" y="35px" style="font-family:'ArialMT', 'Arial', sans-serif;font-size:24px;fill:white;">crelish</text><circle cx="127" cy="35" r="3" style="fill:#0f4756;"/></g></svg>