<?xml version="1.0" encoding="UTF-8" standalone="no"?>
<!DOCTYPE svg PUBLIC "-//W3C//DTD SVG 1.1//EN" "http://www.w3.org/Graphics/SVG/1.1/DTD/svg11.dtd">
<svg width="100%" height="100%" viewBox="0 0 320 146" version="1.1" xmlns="http://www.w3.org/2000/svg" xmlns:xlink="http://www.w3.org/1999/xlink" xml:space="preserve" xmlns:serif="http://www.serif.com/" style="fill-rule:evenodd;clip-rule:evenodd;stroke-linejoin:round;stroke-miterlimit:2;">
    <g transform="matrix(2.63158,0,0,2.63158,-63.7105,-61.0855)">
        <g id="SvgjsG8750">
            <path d="M46,68L70,68L70,71L46,71L46,68ZM32,71L43,71L43,68L32,68L32,71ZM32,63L64.251,63L64.251,60L32,60L32,63ZM47.69,52L32,52L32,55L47.69,55L47.69,52ZM50.87,54.77L50.81,46.77L62.5,28.37L70,33.37L58.31,51.81L50.87,54.77ZM62.87,33.54L65.11,35L65.77,34L63.56,32.5L62.87,33.54ZM55.87,44.63L58.08,46.11L63.62,37.3L61.41,35.82L55.87,44.63ZM53.87,47.88L53.87,50.24L56.06,49.37L56.64,48.45L54.47,47L53.87,47.88Z" style="fill:url(#_Linear1);fill-rule:nonzero;"/>
        </g>
    </g>
    <g transform="matrix(1.56299,0,0,1.56299,96.6866,62.4418)">
        <g id="SvgjsG8751">
            <path d="M25.92,37C23.44,39.24 20.12,40.4 16.4,40.4C8.56,40.4 1.8,34.52 1.8,26C1.8,17.48 8.56,11.6 16.4,11.6C20.08,11.6 23.36,12.8 25.76,14.92L22.24,18.88C20.76,17.84 18.76,17.08 16.72,17.08C11.68,17.08 7.88,20.8 7.88,26C7.88,31.2 11.68,34.92 16.72,34.92C18.84,34.92 20.92,34.12 22.44,32.92L25.92,37ZM42.32,18.88C42.84,18.88 43.32,18.88 43.84,19L43.84,24.48C43.36,24.36 42.88,24.36 42.48,24.36C38.64,24.36 35.48,27.12 35.12,31.12L35.12,40L29.4,40L29.4,19.2L35.12,19.2L35.12,24.4C36.04,21.24 38.56,18.88 42.32,18.88ZM57.36,18.84C62.08,18.84 68.6,22.4 67.36,31.6L52.24,31.6C52.96,34.2 55.12,35.56 57.92,35.56C60.52,35.56 61.52,34.96 63,34.16L66.16,37.24C64.36,39.12 61.8,40.4 57.72,40.4C52.52,40.4 46.44,36.84 46.44,29.68C46.44,22.4 52.64,18.84 57.36,18.84ZM57.36,23.72C55.28,23.72 53.08,25 52.32,27.56L62.32,27.56C61.68,25 59.4,23.72 57.36,23.72ZM76.72,11.72L76.72,40L71,40L71,11.72L76.72,11.72ZM86.6,11.72L86.6,16.6L80.88,16.6L80.88,11.72L86.6,11.72ZM86.6,19.2L86.6,40L80.88,40L80.88,19.2L86.6,19.2ZM100.72,25.44C100.08,23.96 99.16,23.4 98.04,23.4C97,23.4 96.04,24.04 96.04,24.96C96.04,25.84 96.6,26.4 97.72,26.8L100.24,27.72C103.28,28.8 106.24,29.92 106.24,33.96C106.24,38.12 102.12,40.48 97.92,40.48C94.12,40.48 90.52,38.24 89.68,34.6L94.2,33.2C94.72,34.6 95.84,35.92 97.92,35.92C99.4,35.92 100.52,34.96 100.52,33.92C100.52,33.24 100.04,32.64 98.8,32.16L96.4,31.32C92.32,29.84 90.44,27.72 90.44,24.88C90.44,21.12 93.92,18.84 97.8,18.84C101.72,18.84 104.32,20.96 105.52,24.2L100.72,25.44ZM121.88,18.88C125.84,18.88 129.76,21.48 129.76,28.04L129.76,40L124.04,40L124.04,28.44C124.04,25.04 122.72,23.88 120.52,23.88C117.48,23.88 115.68,26.76 115.24,28.2L115.24,40L109.52,40L109.52,11.72L115.24,11.72L115.24,23.04C115.64,21.96 117.88,18.88 121.88,18.88Z" style="fill:url(#_Linear2);fill-rule:nonzero;"/>
        </g>
    </g>
    <defs>
        <linearGradient id="_Linear1" x1="0" y1="0" x2="1" y2="0" gradientUnits="userSpaceOnUse" gradientTransform="matrix(38,0,0,38,32,28.37)"><stop offset="0" style="stop-color:rgb(0,221,255);stop-opacity:1"/><stop offset="1" style="stop-color:rgb(255,0,212);stop-opacity:1"/></linearGradient>
        <linearGradient id="_Linear2" x1="0" y1="0" x2="1" y2="0" gradientUnits="userSpaceOnUse" gradientTransform="matrix(127.96,0,0,127.96,1.8,11.6)"><stop offset="0" style="stop-color:rgb(0,221,255);stop-opacity:1"/><stop offset="1" style="stop-color:rgb(255,0,212);stop-opacity:1"/></linearGradient>
    </defs>
</svg>
