<?xml version="1.0" encoding="UTF-8"?>
<svg class="css-g5ufxp" viewBox="0 0 369.89 91.909" xmlns="http://www.w3.org/2000/svg">
    <g transform="matrix(1.9597 0 0 1.9597 -.97984 -1.1758)" fill="#fff" featurekey="G09qjj-0">
        <g xmlns="http://www.w3.org/2000/svg">
            <path d="m47 26.8-7.4-7.4c-0.7-0.7-1.9-0.7-2.6 0l-15.8 15.8c-0.3 0.3-0.4 0.6-0.5 0.9l-1.8 9.2c-0.1 0.6 0.1 1.2 0.5 1.7 0.3 0.4 0.8 0.5 1.3 0.5h0.4l9.2-1.8c0.4-0.1 0.7-0.2 0.9-0.5l15.8-15.8c0.3-0.3 0.5-0.8 0.5-1.3s-0.2-1-0.5-1.3z"/>
            <path d="m31.8 19.4v-17c0-1-0.8-1.8-1.8-1.8h-27.7c-1 0-1.8 0.8-1.8 1.8v27.5c0 1 0.8 1.8 1.8 1.8h17.1l12.4-12.3zm-16.8-9.7h8c1 0 1.8 0.8 1.8 1.8s-0.8 1.9-1.8 1.9h-8c-1 0-1.8-0.8-1.8-1.8s0.8-1.9 1.8-1.9zm-5.6 12.8c-1 0-1.9-0.8-1.9-1.8s0.8-1.8 1.8-1.8h0.1c1 0 1.8 0.8 1.8 1.8s-0.8 1.8-1.8 1.8zm0-9.1c-1 0-1.9-0.8-1.9-1.8s0.8-1.8 1.8-1.8h0.1c1 0 1.8 0.8 1.8 1.8s-0.8 1.8-1.8 1.8zm3.8 7.3c0-1 0.8-1.8 1.8-1.8h8c1 0 1.8 0.8 1.8 1.8s-0.8 1.8-1.8 1.8h-8c-1 0-1.8-0.8-1.8-1.8z"/>
        </g>
    </g>
    <g transform="matrix(4.5987 0 0 4.5987 108.96 -12.465)" fill="#fff" featurekey="0yvIkK-0">
        <path d="m5.44 20.2c-1.28 0-2.48-0.5-3.38-1.38l-0.02-0.02c-0.88-0.9-1.38-2.1-1.38-3.38s0.5-2.5 1.38-3.4c0.9-0.88 2.1-1.38 3.4-1.38 1.32 0 2.52 0.48 3.38 1.38 0.2 0.2 0.36 0.38 0.5 0.56l0.24 0.36-1.96 1.46-0.28-0.38c-0.48-0.64-1.18-1.04-1.88-1.04-1.26 0-2.34 1.12-2.34 2.44s1.08 2.44 2.34 2.44c0.7 0 1.4-0.4 1.88-1.08l0.26-0.36 2.04 1.46-0.3 0.38c-0.04 0.06-0.1 0.12-0.16 0.18-0.1 0.12-0.22 0.26-0.34 0.38-0.88 0.88-2.08 1.38-3.38 1.38zm8.7-0.2h-2.52v-9.16h2.52v0.74c0.72-0.72 1.8-0.96 2.52-0.96h0.6l-0.6 2.5h-0.38c-1.18 0-2.14 0.92-2.14 2.02v4.86zm8.12 0.22h-0.02c-0.58 0-1.18-0.14-1.74-0.4-0.52-0.22-1-0.58-1.44-1.04-0.7-0.76-1.12-1.76-1.22-2.8-0.02-0.18-0.04-0.36-0.04-0.56 0-0.4 0.06-0.82 0.16-1.24 0.18-0.8 0.56-1.54 1.1-2.1 0.4-0.44 0.86-0.78 1.44-1.06 0.54-0.26 1.14-0.38 1.76-0.38 0.64 0 1.22 0.12 1.76 0.38 0.6 0.28 1.08 0.64 1.44 1.06 0.52 0.56 0.92 1.28 1.12 2.1 0.1 0.38 0.14 0.78 0.14 1.24v0.46h-6.72l0.02 0.14c0.26 1.24 1.2 2.14 2.24 2.14h0.02c0.58-0.04 1.22-0.4 1.6-0.72l0.22-0.18 1.66 1.44-0.3 0.26c-0.22 0.2-0.5 0.44-0.8 0.6h-0.02c-0.72 0.42-1.5 0.64-2.38 0.66zm0-7.5c-0.78 0-1.56 0.54-1.98 1.38l-0.08 0.16h4.14l-0.08-0.16c-0.46-0.86-1.22-1.38-2-1.38zm8.74 7.28h-2.6v-14.68h2.6v14.68zm5.66 0h-2.6v-9.16h2.6v9.16zm-1.3-10.26c-0.86 0-1.56-0.7-1.56-1.54 0-0.42 0.16-0.8 0.46-1.08 0.3-0.3 0.68-0.46 1.1-0.46 0.84 0 1.54 0.7 1.54 1.54s-0.7 1.54-1.54 1.54zm7.44 10.34c-0.28 0-0.58-0.04-0.94-0.1-1-0.2-1.94-0.64-2.68-1.3l-0.3-0.24 1.5-1.66 0.28 0.26c0.88 0.74 1.6 0.88 2.06 0.88 0.34 0 0.58-0.04 0.82-0.16 0.3-0.12 0.44-0.32 0.44-0.6 0-0.24-0.14-0.54-1.32-0.74-1.08-0.22-1.76-0.44-2.08-0.62-0.42-0.24-0.76-0.56-1-0.96s-0.36-0.84-0.36-1.34c0-0.52 0.16-1.02 0.48-1.48 0.26-0.38 0.64-0.68 1.2-0.96 0.46-0.22 0.98-0.32 1.6-0.32 0.22 0 0.44 0.02 0.64 0.04 0.88 0.14 1.76 0.52 2.48 1.08l0.3 0.24-1.42 1.64-0.28-0.22c-0.7-0.56-1.3-0.66-1.66-0.66-0.26 0-0.5 0.04-0.72 0.14-0.26 0.14-0.4 0.36-0.4 0.5 0 0.28 0.2 0.48 1.24 0.72 1.36 0.32 1.8 0.48 2.08 0.6 0.56 0.32 0.8 0.58 1 0.84 0.3 0.42 0.44 0.94 0.44 1.5 0 0.58-0.16 1.1-0.46 1.52s-0.7 0.78-1.28 1.06c-0.46 0.22-1.06 0.34-1.66 0.34zm13.94-0.08h-2.52v-4.9c0-1.08-0.86-1.92-1.94-1.92-1.04 0-1.94 0.86-1.94 1.92v4.9h-2.5v-14.68h2.5v6.18c0.62-0.62 1.28-0.84 1.94-0.84 1.2 0 2.32 0.46 3.16 1.28 0.84 0.86 1.3 1.98 1.3 3.16v4.9z"/>
    </g>
</svg>
